<svg xmlns="http://www.w3.org/2000/svg" xmlns:svg="http://www.w3.org/2000/svg" id="svg3390" width="458.14" height="528.397" version="1.1" viewBox="0 0 458.14 528.397"><metadata id="metadata3396"/><rect style="opacity:1;fill:#fea814;fill-opacity:1;fill-rule:evenodd;stroke:none;stroke-width:3.38270497;stroke-miterlimit:4;stroke-dasharray:none;stroke-dashoffset:0;stroke-opacity:1" id="rect4216" width="363.507" height="337.186" x="47.317" y="98.238"/><g id="g4206"><g style="stroke:#000;stroke-opacity:.38431373" id="g4202" transform="translate(2.4399188,5.6120988)"><ellipse style="opacity:1;fill:#3e5086;fill-opacity:1;stroke:#3e5086;stroke-width:9.80000019;stroke-miterlimit:3.29999995;stroke-dasharray:none;stroke-opacity:1" id="path4252" cx="162.225" cy="117.599" rx="8.097" ry="8.614"/><path id="path4254" d="m 210.92095,118.56554 c 34.22212,4.53511 32.06978,30.69582 27.22052,50.99541 -3.6878,15.43759 -10.18639,31.1247 -21.01838,42.72587 -8.91827,9.55156 -20.84166,19.66409 -33.90947,19.67381 -13.05656,0.01 -25.47063,-10.34688 -33.90947,-19.60643 -10.69124,-11.73101 -17.33057,-27.28828 -21.01838,-42.72587 -4.84925,-20.29958 -7.0016,-46.46029 27.22052,-50.99541" style="opacity:1;fill:none;fill-opacity:.38431373;fill-rule:evenodd;stroke:#3e5086;stroke-width:9.80000019;stroke-linecap:butt;stroke-linejoin:miter;stroke-miterlimit:3.29999995;stroke-dasharray:none;stroke-opacity:1"/><ellipse id="ellipse4256" cx="-204.202" cy="117.532" rx="8.097" ry="8.614" transform="scale(-1,1)" style="opacity:1;fill:#3e5086;fill-opacity:1;stroke:#3e5086;stroke-width:9.80000019;stroke-miterlimit:3.29999995;stroke-dasharray:none;stroke-opacity:1"/></g><path id="path4260" d="m 185.1484,242.89173 c -0.45941,70.67075 -8.7212,95.54509 28.82728,97.31329 37.54847,1.7682 30.71331,-26.5817 31.59416,-62.6073 0.88085,-36.0256 14.11915,-33.9744 29.81481,-34.20576 19.30363,-0.28454 29.30434,-3.76864 28.91737,39.31565" style="fill:none;fill-rule:evenodd;stroke:#3e5086;stroke-width:9.80000019;stroke-linecap:butt;stroke-linejoin:miter;stroke-miterlimit:4;stroke-dasharray:none;stroke-opacity:1"/><g id="g4354" transform="translate(125.45308,211.32664)"><circle id="circle4352" cx="178.634" cy="102.857" r="31" style="opacity:1;fill:none;fill-opacity:1;stroke:#3e5086;stroke-width:9.80000019;stroke-miterlimit:4;stroke-dasharray:none;stroke-opacity:1"/><circle style="opacity:1;fill:#3e5086;fill-opacity:1;stroke-width:9.80000019;stroke-miterlimit:4;stroke-dasharray:none" id="path4278" cx="178.634" cy="102.53" r="16"/></g></g><text style="font-style:normal;font-variant:normal;font-weight:400;font-stretch:normal;font-size:45px;line-height:125%;font-family:sans-serif;-inkscape-font-specification:'sans-serif, Normal';text-align:start;letter-spacing:0;word-spacing:0;writing-mode:lr-tb;text-anchor:start;opacity:1;fill:#fff;fill-opacity:1;stroke:none;stroke-width:1px;stroke-linecap:butt;stroke-linejoin:miter;stroke-opacity:1" id="text4174" x="74.778" y="398.51" xml:space="preserve"><tspan id="tspan4176" x="74.778" y="398.51">good practice</tspan></text></svg>